<svg xmlns="http://www.w3.org/2000/svg" viewBox="0 0 500 500" width="500" height="500">
  <rect width="500" height="500" fill="#0c0906"/>
  <path d="M120 480 L120 240 C 120 160, 180 100, 250 100 C 320 100, 380 160, 380 240 L 380 480 Z"
        fill="#1a1410" stroke="#e8c28e" stroke-width="3"/>
  <path d="M160 480 L160 260 C 160 200, 200 160, 250 160 C 300 160, 340 200, 340 260 L 340 480"
        fill="none" stroke="#c49565" stroke-width="1.5"/>
  <g transform="translate(250 300)" stroke="#e8c28e" stroke-width="2" fill="none">
    <line x1="0" y1="-50" x2="0" y2="150"/>
    <line x1="-50" y1="40" x2="50" y2="40"/>
    <line x1="-40" y1="100" x2="40" y2="100"/>
  </g>
  <line x1="100" y1="480" x2="400" y2="480" stroke="#c49565" stroke-width="2"/>
  <g stroke="#6a4a30" stroke-width="0.8" opacity="0.5">
    <line x1="100" y1="460" x2="400" y2="460"/>
    <line x1="100" y1="440" x2="400" y2="440"/>
  </g>
</svg>
