<svg xmlns="http://www.w3.org/2000/svg" viewBox="0 0 500 500" width="500" height="500">
  <rect width="500" height="500" fill="#0a0a10"/>
  <g stroke="#4a6a8a" stroke-width="1" fill="none" opacity="0.7">
    <path d="M0 100 C 80 120, 160 80, 240 100 C 320 120, 400 80, 500 100"/>
    <path d="M0 140 C 80 160, 160 120, 240 140 C 320 160, 400 120, 500 140"/>
    <path d="M0 180 C 80 200, 160 160, 240 180 C 320 200, 400 160, 500 180"/>
    <path d="M0 220 C 80 240, 160 200, 240 220 C 320 240, 400 200, 500 220"/>
    <path d="M0 260 C 80 280, 160 240, 240 260 C 320 280, 400 240, 500 260"/>
    <path d="M0 300 C 80 320, 160 280, 240 300 C 320 320, 400 280, 500 300"/>
    <path d="M0 340 C 80 360, 160 320, 240 340 C 320 360, 400 320, 500 340"/>
    <path d="M0 380 C 80 400, 160 360, 240 380 C 320 400, 400 360, 500 380"/>
    <path d="M0 420 C 80 440, 160 400, 240 420 C 320 440, 400 400, 500 420"/>
  </g>
  <g fill="#6a8aaa" opacity="0.5">
    <circle cx="100" cy="150" r="3"/>
    <circle cx="240" cy="120" r="2"/>
    <circle cx="380" cy="180" r="4"/>
    <circle cx="160" cy="240" r="2"/>
    <circle cx="320" cy="280" r="3"/>
    <circle cx="140" cy="340" r="2"/>
    <circle cx="280" cy="380" r="3"/>
    <circle cx="420" cy="400" r="2"/>
  </g>
  <text x="250" y="470" text-anchor="middle" font-family="serif" font-size="16" fill="#8aa0c0" opacity="0.5">NOT THIS — abstract, no recognisable subject</text>
</svg>
