<svg xmlns="http://www.w3.org/2000/svg" viewBox="0 0 500 500" width="500" height="500">
  <rect width="500" height="500" fill="#0f0b08"/>
  <defs>
    <linearGradient id="lightWash" x1="0.5" y1="0" x2="0.5" y2="1">
      <stop offset="0" stop-color="#f4d9bf" stop-opacity="0.85"/>
      <stop offset="0.6" stop-color="#e8c28e" stop-opacity="0.35"/>
      <stop offset="1" stop-color="#1a1410" stop-opacity="0"/>
    </linearGradient>
  </defs>
  <rect x="80" y="60" width="340" height="420" fill="#1a1410"/>
  <path d="M150 480 L150 220 C 150 150, 200 100, 250 100 C 300 100, 350 150, 350 220 L 350 480 Z"
        fill="url(#lightWash)"/>
  <path d="M150 480 L150 220 C 150 150, 200 100, 250 100 C 300 100, 350 150, 350 220 L 350 480"
        fill="none" stroke="#e8c28e" stroke-width="2.5"/>
  <line x1="80" y1="480" x2="420" y2="480" stroke="#c49565" stroke-width="2"/>
  <g stroke="#8a6a45" stroke-width="1" opacity="0.6">
    <line x1="100" y1="440" x2="400" y2="440"/>
    <line x1="100" y1="400" x2="400" y2="400"/>
    <line x1="100" y1="360" x2="400" y2="360"/>
  </g>
</svg>
