<svg xmlns="http://www.w3.org/2000/svg" viewBox="0 0 500 500" width="500" height="500">
  <rect width="500" height="500" fill="#1a1410"/>
  <rect x="20" y="20" width="460" height="460" fill="none" stroke="#e8c28e" stroke-width="2"/>
  <rect x="40" y="40" width="420" height="420" fill="none" stroke="#c49565" stroke-width="1"/>
  <g transform="translate(250 210)">
    <ellipse cx="0" cy="-60" rx="38" ry="46" fill="#e8c28e"/>
    <path d="M-70 60 C -70 20, -40 -10, 0 -10 C 40 -10, 70 20, 70 60 L 80 220 L -80 220 Z" fill="#c06b45"/>
    <path d="M-50 80 C -40 60, -20 55, 0 55 C 20 55, 40 60, 50 80 L 50 140 L -50 140 Z" fill="#8a4a2f"/>
    <circle cx="0" cy="-60" r="48" fill="none" stroke="#f2d7b2" stroke-width="1.5" opacity="0.7"/>
  </g>
  <g transform="translate(250 350)" stroke="#e8c28e" stroke-width="1.2" fill="none" opacity="0.8">
    <path d="M-120 0 C -80 -10, -40 -10, 0 0 C 40 10, 80 10, 120 0"/>
    <path d="M-120 18 C -80 8, -40 8, 0 18 C 40 28, 80 28, 120 18"/>
  </g>
</svg>
